<?xml version="1.0" standalone="no"?><!DOCTYPE svg PUBLIC "-//W3C//DTD SVG 1.1//EN" "http://www.w3.org/Graphics/SVG/1.1/DTD/svg11.dtd"><svg class="icon" width="200px" height="200.00px" viewBox="0 0 1024 1024" version="1.1" xmlns="http://www.w3.org/2000/svg"><path d="M403.456 858.624H216.064c-28.16 0-50.688-22.528-50.688-50.688V622.08c0-6.656 5.632-12.288 12.288-12.288h53.76c6.656 0 12.288 5.632 12.288 12.288V768c0 6.656 5.632 12.288 12.288 12.288h146.944c6.656 0 12.288 5.632 12.288 12.288v53.76c0.512 6.656-5.12 12.288-11.776 12.288z m404.48 0H625.664c-6.656 0-12.288-5.632-12.288-12.288v-53.76c0-6.656 5.632-12.288 12.288-12.288H768c6.656 0 12.288-5.632 12.288-12.288V623.616c0-6.656 5.632-12.288 12.288-12.288h53.76c6.656 0 12.288 5.632 12.288 12.288v184.32c0 28.16-22.528 50.688-50.688 50.688z m38.4-445.44h-53.76c-6.656 0-12.288-5.632-12.288-12.288V256c0-6.656-5.632-12.288-12.288-12.288H624.64c-6.656 0-12.288-5.632-12.288-12.288v-53.76c0-6.656 5.632-12.288 12.288-12.288h183.296c28.16 0 50.688 22.528 50.688 50.688v184.832c0 6.656-5.632 12.288-12.288 12.288z m-614.912 1.024h-53.76c-6.656 0-12.288-5.632-12.288-12.288V216.064c0-28.16 22.528-50.688 50.688-50.688h187.392c6.656 0 12.288 5.632 12.288 12.288v53.76c0 6.656-5.632 12.288-12.288 12.288H256c-6.656 0-12.288 5.632-12.288 12.288v145.408c0 7.168-5.12 12.8-12.288 12.8z" fill="#2C2C2C" /></svg>